<svg width="28" height="28" viewBox="0 0 28 28">
  <path d="M0,0H28V28H0Z" fill="none"/>
  <path d="M22.556,3.4H17.447a3.675,3.675,0,0,0-6.893,0H5.444A2.43,2.43,0,0,0,3,5.8V22.6A2.43,2.43,0,0,0,5.444,25H22.556A2.43,2.43,0,0,0,25,22.6V5.8A2.43,2.43,0,0,0,22.556,3.4ZM14,3.4a1.2,1.2,0,1,1-1.222,1.2A1.215,1.215,0,0,1,14,3.4Zm1.222,16.8H9.111a1.2,1.2,0,1,1,0-2.4h6.111a1.2,1.2,0,1,1,0,2.4Zm3.667-4.8H9.111a1.2,1.2,0,1,1,0-2.4h9.778a1.2,1.2,0,1,1,0,2.4Zm0-4.8H9.111a1.2,1.2,0,1,1,0-2.4h9.778a1.2,1.2,0,1,1,0,2.4Z" transform="translate(0 0)" fill="#ffb846"/>
</svg>
