<svg width="28" height="28" viewBox="0 0 28 28">
  <path d="M0,0H28V28H0Z" fill="none"/>
  <path d="M7.889,17.8h8.556v2.4H7.889Zm0-4.8H20.111v2.4H7.889Zm0-4.8H20.111v2.4H7.889ZM22.556,3.4H17.447a3.675,3.675,0,0,0-6.893,0H5.444a2.179,2.179,0,0,0-.489.048,2.467,2.467,0,0,0-1.234.66,2.4,2.4,0,0,0-.526.768A2.276,2.276,0,0,0,3,5.8V22.6a2.423,2.423,0,0,0,.2.936,2.541,2.541,0,0,0,.526.768,2.467,2.467,0,0,0,1.234.66A3.229,3.229,0,0,0,5.444,25H22.556A2.43,2.43,0,0,0,25,22.6V5.8A2.43,2.43,0,0,0,22.556,3.4ZM14,3.1a.9.9,0,1,1-.917.9A.915.915,0,0,1,14,3.1Zm8.556,19.5H5.444V5.8H22.556Z" transform="translate(0 0)" fill="#333"/>
</svg>
