<svg width="28" height="28" viewBox="0 0 28 28">
  <path d="M0,0H28V28H0Z" fill="none"/>
  <path d="M4.222,15.222h7.333A1.226,1.226,0,0,0,12.778,14V4.222A1.226,1.226,0,0,0,11.556,3H4.222A1.226,1.226,0,0,0,3,4.222V14A1.226,1.226,0,0,0,4.222,15.222Zm0,9.778h7.333a1.226,1.226,0,0,0,1.222-1.222V18.889a1.226,1.226,0,0,0-1.222-1.222H4.222A1.226,1.226,0,0,0,3,18.889v4.889A1.226,1.226,0,0,0,4.222,25Zm12.222,0h7.333A1.226,1.226,0,0,0,25,23.778V14a1.226,1.226,0,0,0-1.222-1.222H16.444A1.226,1.226,0,0,0,15.222,14v9.778A1.226,1.226,0,0,0,16.444,25ZM15.222,4.222V9.111a1.226,1.226,0,0,0,1.222,1.222h7.333A1.226,1.226,0,0,0,25,9.111V4.222A1.226,1.226,0,0,0,23.778,3H16.444A1.226,1.226,0,0,0,15.222,4.222Z" fill="#ffb846"/>
</svg>
